<svg width="22" height="22" viewBox="0 0 22 22" fill="none" xmlns="http://www.w3.org/2000/svg">
<circle cx="11" cy="11" r="11" fill="#E3A358"/>
<path d="M12.2064 8.89862C12.1679 10.146 12.1268 11.3933 12.0883 12.6379C12.0746 13.1102 11.9401 13.2991 11.5063 13.4769C11.155 13.6214 10.8036 13.6019 10.4577 13.4824C10.1227 13.3685 9.9443 13.1241 9.93058 12.7574C9.84822 10.2627 9.76037 7.77072 9.67801 5.27601C9.65605 4.62317 9.92234 4.23146 10.4769 4.05366C11.1193 3.84808 11.866 4.02588 12.1432 4.50649C12.2695 4.72595 12.3299 5.01765 12.3272 5.27601C12.3134 6.4817 12.2695 7.69016 12.2338 8.89584H12.2036L12.2064 8.89862Z" fill="white"/>
<path d="M9.62579 16.3188C9.62305 15.5187 10.249 14.8742 11.0314 14.8742C11.7808 14.8742 12.4314 15.5326 12.4369 16.3022C12.4424 17.0606 11.7918 17.7412 11.0451 17.7495C10.2709 17.7607 9.62579 17.1134 9.62305 16.3161L9.62579 16.3188Z" fill="white"/>
</svg>
