<svg viewBox="0 0 28 28" fill="none" xmlns="http://www.w3.org/2000/svg">
    <path d="M0.933334 0.93335L2.05333 4.66668M2.05333 4.66668L6.53333 19.6H27.0667V8.40002C27.0667 6.33815 25.3952 4.66668 23.3333 4.66668H2.05333ZM15.8667 7.46668V12.1333M15.8667 16.8V12.1333M11.2 12.1333H15.8667M20.5333 12.1333H15.8667M23.3333 27.0667C22.3024 27.0667 21.4667 26.2309 21.4667 25.2C21.4667 24.1691 22.3024 23.3333 23.3333 23.3333C24.3643 23.3333 25.2 24.1691 25.2 25.2C25.2 26.2309 24.3643 27.0667 23.3333 27.0667ZM8.4 25.2C8.4 24.1691 9.23574 23.3333 10.2667 23.3333C11.2976 23.3333 12.1333 24.1691 12.1333 25.2C12.1333 26.2309 11.2976 27.0667 10.2667 27.0667C9.23574 27.0667 8.4 26.2309 8.4 25.2Z" stroke="#92959A" stroke-width="1.5"/>
</svg>
