<svg width="26" height="24" viewBox="0 0 26 24" fill="none" xmlns="http://www.w3.org/2000/svg">
<g id="a" clip-path="url(#clip0_498_774)">
<path id="Vector" d="M20.1421 2.52085C20.375 1.15836 21.4474 0.141843 22.8491 0.0329992C23.57 -0.0233662 24.299 0.0116192 25.024 0.0155065C25.5903 0.0155065 26.002 0.400346 26 0.913466C26 1.4227 25.5843 1.80559 25.0179 1.80948C24.4376 1.81337 23.8572 1.80948 23.2768 1.80948C22.5097 1.80948 22.082 2.14767 21.9575 2.87654C21.6362 4.74826 21.3289 6.62192 21.0096 8.49364C20.5216 11.3527 20.0296 14.2099 19.5336 17.069C19.4171 17.7356 19.1038 17.9805 18.407 17.9805C13.5632 17.9805 8.71749 17.9805 3.87374 17.9805C3.201 17.9805 2.90579 17.7589 2.74313 17.1273C1.84949 13.6559 0.953837 10.1827 0.0601932 6.71133C-0.156691 5.87362 0.222856 5.40326 1.10847 5.40326C7.16114 5.40326 13.2158 5.40326 19.2685 5.40326H19.642C19.8127 4.41784 19.9794 3.46935 20.1421 2.52085ZM17.7865 16.1749C18.3026 13.1914 18.8167 10.2099 19.3348 7.21084H2.12662C2.89977 10.2021 3.6669 13.1778 4.44206 16.1749H17.7865Z" fill="white"/>
<path id="Vector_2" d="M19.5015 21.3295C19.4955 22.795 18.2404 24.002 16.7222 24.0001C15.1819 24.0001 13.9368 22.795 13.9348 21.3101C13.9328 19.8251 15.1839 18.6104 16.7141 18.6123C18.2645 18.6143 19.5075 19.8271 19.5035 21.3315L19.5015 21.3295ZM16.7021 22.2022C17.2202 22.21 17.648 21.7999 17.6439 21.2984C17.6399 20.8086 17.2242 20.4102 16.7162 20.4082C16.2141 20.4082 15.7924 20.8125 15.7904 21.2984C15.7884 21.7901 16.198 22.1944 16.7041 22.2022H16.7021Z" fill="white"/>
<path id="Vector_3" d="M5.56661 24.0001C4.03838 24.0001 2.78327 22.7775 2.7913 21.2965C2.79933 19.8096 4.04641 18.6104 5.58469 18.6104C7.11292 18.6104 8.36402 19.829 8.36 21.3139C8.35598 22.7969 7.10488 24.0001 5.56661 24.0001ZM5.57264 22.2022C6.08071 22.2022 6.4964 21.8037 6.50243 21.3139C6.50845 20.8125 6.08071 20.4004 5.5646 20.4082C5.05854 20.414 4.64887 20.8183 4.64887 21.3101C4.64887 21.796 5.07059 22.2022 5.57264 22.2022Z" fill="white"/>
</g>
<defs>
<clipPath id="clip0_498_774">
<rect width="26" height="24" fill="white"/>
</clipPath>
</defs>
</svg>
