<?xml version="1.0" standalone="no"?>
<!DOCTYPE svg PUBLIC "-//W3C//DTD SVG 20010904//EN"
 "http://www.w3.org/TR/2001/REC-SVG-20010904/DTD/svg10.dtd">
<svg version="1.0" xmlns="http://www.w3.org/2000/svg"
 width="20px" height="20px" viewBox="0 0 512.000000 512.000000"
 preserveAspectRatio="xMidYMid meet">

<g transform="translate(0.000000,512.000000) scale(0.100000,-0.100000)"
fill="#A1A1B3" stroke="none">
<path d="M1935 4329 c-107 -14 -309 -67 -420 -111 -558 -220 -956 -695 -1087
-1298 -20 -93 -22 -133 -22 -345 0 -212 2 -252 22 -345 140 -645 586 -1141
1204 -1338 303 -98 663 -107 973 -27 504 131 930 483 1151 950 191 404 225
847 97 1269 l-27 89 69 65 c168 156 426 352 666 508 133 86 150 100 164 138
15 40 15 45 -15 161 -17 66 -37 129 -45 141 -15 24 -73 54 -103 54 -29 0 -282
-73 -397 -115 -212 -76 -506 -221 -681 -335 -21 -13 -28 -8 -115 74 -277 258
-622 419 -999 465 -98 13 -334 12 -435 0z m477 -258 c257 -45 502 -157 703
-321 92 -76 131 -118 119 -129 -5 -4 -46 -36 -92 -70 -253 -190 -525 -433
-778 -695 -158 -163 -175 -178 -191 -165 -10 8 -164 142 -342 299 -425 374
-393 350 -454 350 -60 0 -59 1 -294 -273 -149 -172 -153 -178 -153 -223 0 -25
5 -54 10 -65 20 -37 1181 -1334 1211 -1353 35 -21 94 -25 127 -7 13 7 82 92
154 189 321 433 643 812 1056 1242 l129 135 17 -74 c9 -40 22 -110 28 -155 15
-112 4 -367 -20 -481 -131 -610 -593 -1065 -1205 -1187 -146 -29 -405 -31
-542 -5 -472 92 -868 380 -1079 786 -69 134 -107 236 -142 387 -26 108 -28
136 -29 314 0 150 4 216 18 285 43 211 134 427 252 596 84 121 268 300 391
382 183 121 378 200 589 238 142 25 370 25 517 0z m1913 -169 c-6 -5 -59 -44
-120 -88 -608 -437 -1290 -1137 -1904 -1953 l-93 -123 -23 23 c-106 110 -955
1074 -952 1082 4 14 150 186 158 186 4 1 170 -144 370 -320 200 -177 380 -328
399 -336 27 -12 42 -13 71 -4 43 13 43 13 241 227 251 271 582 570 854 770
298 221 567 374 869 495 118 48 149 57 130 41z"/>
</g>
</svg>
