<?xml version="1.0" encoding="UTF-8"?>
<!DOCTYPE svg PUBLIC "-//W3C//DTD SVG 1.1//EN" "http://www.w3.org/Graphics/SVG/1.1/DTD/svg11.dtd">
<svg xmlns="http://www.w3.org/2000/svg" version="1.1" width="512px" height="512px" style="shape-rendering:geometricPrecision; text-rendering:geometricPrecision; image-rendering:optimizeQuality; fill-rule:evenodd; clip-rule:evenodd" xmlns:xlink="http://www.w3.org/1999/xlink">
<g><path style="opacity:0.906" fill="#000000" d="M 181.5,27.5 C 215.835,27.3333 250.168,27.5 284.5,28C 287.754,28.2503 290.754,29.2503 293.5,31C 337,74.5 380.5,118 424,161.5C 425,163.167 426,164.833 427,166.5C 428.158,203.775 428.658,241.108 428.5,278.5C 428.655,316.212 428.155,353.879 427,391.5C 421.669,406.499 411.169,415.333 395.5,418C 384.839,418.5 374.172,418.667 363.5,418.5C 363.922,431.561 363.422,444.561 362,457.5C 356.985,469.851 348.151,478.017 335.5,482C 262.864,483.648 190.197,483.981 117.5,483C 99.1072,480.606 87.6072,470.439 83,452.5C 82.3333,342.5 82.3333,232.5 83,122.5C 87.829,106.002 98.6623,96.1691 115.5,93C 126.161,92.5002 136.828,92.3335 147.5,92.5C 147.333,80.8286 147.5,69.1619 148,57.5C 153.09,40.5703 164.257,30.5703 181.5,27.5 Z M 182.5,36.5 C 216.073,36.1707 249.573,36.5041 283,37.5C 283.333,72.8333 283.667,108.167 284,143.5C 288.944,160.447 300.111,170.28 317.5,173C 351.498,173.5 385.498,173.667 419.5,173.5C 419.667,244.501 419.5,315.501 419,386.5C 415.314,398.851 407.148,406.351 394.5,409C 323.5,409.667 252.5,409.667 181.5,409C 165.839,405.34 157.339,395.507 156,379.5C 155.333,275.167 155.333,170.833 156,66.5C 157.641,50.0315 166.474,40.0315 182.5,36.5 Z M 292.5,43.5 C 332.632,83.1319 372.632,122.965 412.5,163C 380.167,163.667 347.833,163.667 315.5,163C 303.559,159.392 296.059,151.559 293,139.5C 292.5,107.502 292.333,75.5017 292.5,43.5 Z M 116.5,101.5 C 126.833,101.5 137.167,101.5 147.5,101.5C 147.333,197.501 147.5,293.501 148,389.5C 152.276,404.776 162.109,414.276 177.5,418C 236.832,418.5 296.166,418.667 355.5,418.5C 356.048,430.945 355.214,443.279 353,455.5C 348.213,466.144 340.046,472.31 328.5,474C 258.167,474.667 187.833,474.667 117.5,474C 104.332,471.834 95.8317,464.334 92,451.5C 91.3333,342.5 91.3333,233.5 92,124.5C 95.8736,112.123 104.04,104.456 116.5,101.5 Z"/></g>
<g><path style="opacity:0.866" fill="#000000" d="M 235.5,196.5 C 253.167,196.5 270.833,196.5 288.5,196.5C 288.5,199.5 288.5,202.5 288.5,205.5C 270.833,205.5 253.167,205.5 235.5,205.5C 235.5,202.5 235.5,199.5 235.5,196.5 Z"/></g>
<g><path style="opacity:0.988" fill="#000000" d="M 235.5,251.5 C 270.167,251.5 304.833,251.5 339.5,251.5C 339.5,254.167 339.5,256.833 339.5,259.5C 304.833,259.5 270.167,259.5 235.5,259.5C 235.5,256.833 235.5,254.167 235.5,251.5 Z"/></g>
<g><path style="opacity:0.879" fill="#000000" d="M 235.5,305.5 C 270.167,305.5 304.833,305.5 339.5,305.5C 339.5,308.5 339.5,311.5 339.5,314.5C 304.833,314.5 270.167,314.5 235.5,314.5C 235.5,311.5 235.5,308.5 235.5,305.5 Z"/></g>
</svg>
