<svg viewBox="0 0 16 17" fill="none" xmlns="http://www.w3.org/2000/svg">
    <g clip-path="url(#clip0_2232_1283)">
        <path d="M8.93807 8.04982L15.7966 1.15215C16.0613 0.895043 16.0687 0.470818 15.813 0.204597C15.5574 -0.0616234 15.1356 -0.0690053 14.8708 0.188106C14.8653 0.193485 14.8598 0.198982 14.8544 0.204597L7.99585 7.10226L1.13729 0.204558C0.872581 -0.052553 0.450761 -0.0451711 0.195107 0.221049C-0.054299 0.480752 -0.054299 0.892451 0.195107 1.15215L7.05367 8.04982L0.195107 14.9475C-0.0650358 15.2091 -0.0650358 15.6334 0.195107 15.895C0.45529 16.1566 0.87711 16.1566 1.13729 15.895L7.99585 8.99737L14.8544 15.895C15.1191 16.1521 15.5409 16.1448 15.7966 15.8785C16.046 15.6188 16.046 15.2071 15.7966 14.9475L8.93807 8.04982Z" fill="#92959A"/>
    </g>
    <defs>
        <clipPath id="clip0_2232_1283">
            <rect width="16" height="16.0913" fill="white"/>
        </clipPath>
    </defs>
</svg>
