<svg width="14" height="14" viewBox="0 0 14 14" fill="none" xmlns="http://www.w3.org/2000/svg">
<path d="M7.0003 0.269531C5.66908 0.269531 4.36776 0.664284 3.26089 1.40387C2.15402 2.14346 1.29132 3.19466 0.781884 4.42455C0.272448 5.65443 0.139156 7.00777 0.398864 8.31341C0.658572 9.61905 1.29962 10.8184 2.24093 11.7597C3.18225 12.701 4.38155 13.342 5.6872 13.6017C6.99284 13.8614 8.34617 13.7282 9.57606 13.2187C10.8059 12.7093 11.8571 11.8466 12.5967 10.7397C13.3363 9.63285 13.7311 8.33152 13.7311 7.0003C13.729 5.21582 13.0192 3.50501 11.7574 2.24319C10.4956 0.98137 8.78479 0.27158 7.0003 0.269531V0.269531ZM9.39154 8.94852L6.69924 7.60237C6.58744 7.54646 6.49342 7.46051 6.42771 7.35418C6.36201 7.24784 6.32721 7.1253 6.32723 7.0003V3.63492C6.32723 3.45641 6.39814 3.28521 6.52437 3.15898C6.65059 3.03275 6.82179 2.96184 7.0003 2.96184C7.17881 2.96184 7.35001 3.03275 7.47624 3.15898C7.60247 3.28521 7.67338 3.45641 7.67338 3.63492V6.5842L9.99368 7.74432C10.1534 7.82417 10.2748 7.96418 10.3312 8.13356C10.3877 8.30294 10.3746 8.4878 10.2947 8.64749C10.2149 8.80718 10.0749 8.9286 9.90547 8.98506C9.7361 9.04151 9.55123 9.02837 9.39154 8.94852V8.94852Z" fill="#92959A"/>
</svg>
