<svg viewBox="0 0 119 36" fill="none" xmlns="http://www.w3.org/2000/svg">
    <g clip-path="url(#clip0_1583_1871)">
        <path d="M28.3775 29.7241H29.1158V34.5454C29.1158 35.0235 29.0161 35.3821 28.7966 35.6212C28.597 35.8603 28.2777 35.9997 27.8387 35.9997C27.7988 35.9997 27.7388 35.9997 27.659 35.9997C27.5792 35.9997 27.5194 35.9798 27.4395 35.9798C27.3597 35.9599 27.2999 35.9599 27.2399 35.9399C27.1801 35.92 27.1202 35.9001 27.0803 35.8802L27.22 35.2625C27.3797 35.3224 27.5593 35.3622 27.7589 35.3622C27.9983 35.3622 28.1779 35.2825 28.2578 35.1032C28.3376 34.9239 28.3775 34.6848 28.3775 34.386V29.7241Z" fill="white"/>
        <path d="M35.1423 29.7241H38.5149V30.3815H35.8807V32.3938H38.2954V33.0512H35.8807V35.2427H38.5548V35.9001H35.1423V29.7241Z" fill="white"/>
        <path d="M45.4998 33.8684L45.6395 34.8844L45.7991 33.8485L47.0763 29.7245H47.4356L48.7127 33.8684L48.8724 34.8844L49.032 33.8485L50.0697 29.7245H50.7682L49.052 36.0001H48.6528L47.3957 31.8562L47.236 30.9199H47.1961L47.0364 31.8562L45.7792 35.9802H45.38L43.604 29.7046H44.3823L45.4998 33.8684Z" fill="white"/>
        <path d="M56.0375 29.7241H59.41V30.3815H56.7758V32.3938H59.1905V33.0512H56.7758V35.2427H59.45V35.9001H56.0375V29.7241Z" fill="white"/>
        <path d="M68.8482 35.9001H65.1964V29.7241H65.9351V35.2427H68.8482V35.9001Z" fill="white"/>
        <path d="M74.176 29.784C74.3954 29.7441 74.655 29.7043 74.9543 29.6844C75.2536 29.6645 75.5133 29.6445 75.7525 29.6445C76.0319 29.6445 76.2711 29.6644 76.5308 29.7242C76.77 29.784 76.99 29.8836 77.1697 30.023C77.3488 30.1625 77.5086 30.3418 77.6084 30.561C77.728 30.7801 77.7683 31.0391 77.7683 31.3578C77.7683 31.836 77.6282 32.2344 77.3692 32.5333C77.1096 32.8321 76.77 33.0314 76.3709 33.131L76.7904 33.4497L78.3266 35.9002H77.469L75.7723 33.2306L74.9141 33.0911V35.8803H74.176V29.784ZM75.7723 30.282C75.6924 30.282 75.613 30.282 75.5331 30.282C75.4532 30.282 75.3732 30.282 75.2933 30.282C75.214 30.282 75.1539 30.302 75.0739 30.302C75.0144 30.302 74.9543 30.3219 74.9141 30.3219V32.5931H75.613C76.0121 32.5931 76.3511 32.4935 76.6107 32.2942C76.8698 32.095 77.0098 31.7762 77.0098 31.3578C77.0098 31.0391 76.91 30.7801 76.6907 30.5809C76.4508 30.4016 76.1515 30.282 75.7723 30.282Z" fill="white"/>
        <path d="M84.6733 33.4496L82.6383 29.7241H83.4959L84.9528 32.4336L85.1127 32.9715L85.2719 32.4137L86.6693 29.7241H87.4476L85.412 33.4496V35.92H84.6733V33.4496Z" fill="white"/>
        <path d="M30.3331 17.5318V17.2927C30.373 17.2927 30.4928 17.2728 30.6724 17.2529C30.852 17.213 31.0516 17.1732 31.2511 17.0935C31.4507 17.0138 31.6303 16.8943 31.77 16.7548C31.9297 16.6154 31.9895 16.4361 31.9895 16.197C31.9895 16.0576 31.9496 15.8185 31.8499 15.4997C31.77 15.181 31.6303 14.7825 31.4707 14.3044C31.311 13.8262 31.1314 13.3082 30.9119 12.7305C30.7123 12.1528 30.4729 11.555 30.2334 10.9375H23.8674C23.6279 11.5351 23.3885 12.1129 23.1689 12.6707C22.9494 13.2286 22.7299 13.7665 22.4904 14.3243C22.1512 15.181 21.9915 15.7985 21.9915 16.1372C21.9915 16.3364 22.0514 16.5158 22.1911 16.6552C22.3108 16.7947 22.4904 16.8943 22.69 16.9939C22.8896 17.0935 23.1091 17.1533 23.3286 17.1931C23.5681 17.233 23.7876 17.2728 23.9871 17.2927V17.5318H18.9382V17.2728C19.3573 17.233 19.7165 17.1134 19.9959 16.9342C20.2953 16.7548 20.4549 16.6353 20.5148 16.5755C20.6345 16.456 20.8141 16.197 21.0736 15.7786C21.333 15.3602 21.6323 14.7427 22.0115 13.9457C22.3508 13.1887 22.7299 12.352 23.129 11.3957C23.5481 10.4394 23.9672 9.4632 24.4062 8.44716C24.8453 7.43112 25.2843 6.41508 25.7034 5.399C26.1424 4.36303 26.5415 3.40675 26.9207 2.53016L26.6812 2.01218C26.9606 1.89264 27.22 1.73326 27.4595 1.55395C27.699 1.37465 27.8985 1.19535 28.0782 0.996126C28.2577 0.796902 28.3974 0.617592 28.5172 0.438292C28.6369 0.258989 28.7367 0.119535 28.7965 0H28.9961C29.495 1.31489 29.954 2.57 30.413 3.76535C30.852 4.9607 31.291 6.0963 31.6902 7.19202C32.0893 8.28774 32.4884 9.3636 32.8676 10.3796C33.2467 11.4156 33.6259 12.4117 34.025 13.4278C34.2046 13.9258 34.3643 14.3243 34.5239 14.663C34.6836 14.9818 34.8432 15.3602 35.0428 15.7786C35.0827 15.8384 35.1425 15.958 35.2623 16.1173C35.382 16.2767 35.5217 16.4361 35.7014 16.6154C35.8809 16.7747 36.1204 16.9342 36.3798 17.0537C36.6593 17.1732 36.9785 17.2529 37.3377 17.2728V17.5517H30.3331V17.5318ZM27.2001 3.04814C27.1003 3.24737 26.9606 3.58605 26.781 4.02434C26.6014 4.46264 26.3619 5.02047 26.1025 5.65799C25.8231 6.2955 25.5237 7.01274 25.2045 7.82952C24.8852 8.62644 24.5259 9.50304 24.1468 10.4394H30.1137C29.8342 9.72216 29.5748 9.00498 29.2954 8.28774C29.0161 7.57056 28.7367 6.87324 28.4772 6.21582C28.2178 5.55838 27.9783 4.94078 27.7588 4.40288C27.5193 3.84505 27.3398 3.40675 27.2001 3.04814Z" fill="white"/>
        <path d="M55.1194 17.5318H39.7532V17.2927C40.1523 17.233 40.5514 17.1334 40.9306 16.974C41.3297 16.8345 41.629 16.6353 41.8486 16.3763C41.9284 16.2767 41.9883 16.1372 42.0481 15.9579C42.108 15.7786 42.1479 15.5595 42.1879 15.3204C42.2278 15.0814 42.2477 14.8223 42.2677 14.5634C42.2876 14.3044 42.3076 14.0453 42.3076 13.7864C42.3076 13.5672 42.3076 13.2684 42.3275 12.8699C42.3275 12.4914 42.3475 12.073 42.3475 11.6148C42.3475 11.1566 42.3674 10.6984 42.3674 10.2202C42.3674 9.72216 42.3674 9.26394 42.3674 8.82564V4.18372C42.3674 3.90481 42.3674 3.62588 42.3674 3.34697C42.3674 3.06806 42.3475 2.78914 42.3275 2.55007C42.3076 2.311 42.2677 2.09185 42.2278 1.89263C42.1879 1.6934 42.108 1.55395 42.0082 1.43441C41.7887 1.15549 41.4894 0.956274 41.1102 0.816816C40.731 0.677358 40.3319 0.57774 39.9328 0.537895V0.298828H47.556V0.537895C47.3564 0.57774 47.097 0.617586 46.8176 0.677352C46.5383 0.737124 46.2589 0.836736 45.9995 0.996114C45.74 1.13557 45.5205 1.3348 45.3409 1.61372C45.1613 1.87271 45.0615 2.23131 45.0416 2.64968C45.0216 3.20752 45.0216 3.7255 45.0016 4.18372C45.0016 4.64194 44.9817 5.10016 44.9817 5.53845C44.9817 5.97674 44.9617 6.45486 44.9617 6.933C44.9617 7.41114 44.9617 7.9491 44.9617 8.52684C44.9617 9.06474 44.9617 9.5628 44.9617 10.0011C44.9617 10.4394 44.9617 10.8578 44.9617 11.2762C44.9617 11.6945 44.9617 12.1129 44.9817 12.5512C44.9817 12.9895 45.0016 13.4875 45.0016 14.0254C45.0216 14.5434 45.0416 15.0215 45.0615 15.4798C45.0815 15.938 45.1613 16.2767 45.3209 16.5158C45.3808 16.5955 45.5205 16.6751 45.7001 16.7548C45.8996 16.8345 46.1192 16.8943 46.3985 16.9541C46.678 17.0138 46.9574 17.0537 47.2766 17.0935C47.5959 17.1334 47.9153 17.1533 48.2345 17.1533C48.3543 17.1533 48.5738 17.1533 48.8532 17.1334C49.1325 17.1334 49.4319 17.1134 49.7711 17.0935C50.1104 17.0736 50.4497 17.0338 50.8089 16.9939C51.168 16.9541 51.4674 16.8743 51.7468 16.7947C52.3854 16.6154 52.9242 16.3962 53.3433 16.0974C53.7624 15.8185 54.1216 15.4798 54.4408 15.1013C54.7402 14.7227 54.9997 14.3243 55.1992 13.886C55.3987 13.4477 55.5983 12.9895 55.7979 12.5113L56.0374 12.591L55.1194 17.5318Z" fill="white"/>
        <path d="M68.9083 17.5318V17.2927C68.9479 17.2927 69.0681 17.2728 69.2472 17.2529C69.4269 17.213 69.6265 17.1732 69.826 17.0935C70.0255 17.0138 70.2052 16.8943 70.3453 16.7548C70.5045 16.6154 70.5647 16.4361 70.5647 16.197C70.5647 16.0576 70.5244 15.8185 70.4246 15.4997C70.3453 15.181 70.2052 14.7825 70.046 14.3044C69.8861 13.8262 69.7064 13.3082 69.487 12.7305C69.2677 12.1528 69.0477 11.555 68.8085 10.9375H62.4426C62.2028 11.5351 61.9636 12.1129 61.7442 12.6707C61.5243 13.2286 61.3049 13.7665 61.0657 14.3243C60.7261 15.181 60.5668 15.7985 60.5668 16.1372C60.5668 16.3364 60.6263 16.5158 60.7664 16.6552C60.886 16.7947 61.0657 16.8943 61.2652 16.9939C61.4648 17.0935 61.6841 17.1533 61.9035 17.1931C62.1433 17.233 62.3627 17.2728 62.5622 17.2927V17.5318H57.4734V17.2728C57.8925 17.233 58.2517 17.1134 58.531 16.9342C58.8304 16.7548 58.99 16.6353 59.05 16.5755C59.1697 16.456 59.3493 16.197 59.6087 15.7786C59.8681 15.3602 60.1672 14.7427 60.5464 13.9457C60.886 13.1887 61.2652 12.352 61.6643 11.3957C62.0832 10.4394 62.5021 9.4632 62.9414 8.44716C63.3802 7.43112 63.8195 6.41508 64.2384 5.399C64.6778 4.36303 65.0768 3.40675 65.4561 2.53016L65.2163 2.01218C65.4957 1.89264 65.7554 1.73326 65.9946 1.55395C66.2344 1.37465 66.4339 1.19535 66.613 0.996126C66.7927 0.796902 66.9327 0.617592 67.0524 0.438292C67.172 0.258989 67.2717 0.119535 67.3318 0H67.5314C68.0302 1.31489 68.4894 2.57 68.9479 3.76535C69.3873 4.9607 69.826 6.0963 70.2251 7.19202C70.6248 8.28774 71.0238 9.3636 71.4025 10.3796C71.7817 11.4156 72.1609 12.4117 72.5402 13.4278C72.7199 13.9258 72.8797 14.3243 73.039 14.663C73.1989 14.9818 73.3581 15.3602 73.5583 15.7786C73.5979 15.8384 73.658 15.958 73.7777 16.1173C73.8973 16.2767 74.0367 16.4361 74.2164 16.6154C74.3961 16.7747 74.6359 16.9342 74.8949 17.0537C75.1744 17.1732 75.4935 17.2529 75.8529 17.2728V17.5517H68.9083V17.5318ZM65.7752 3.04814C65.6754 3.24737 65.5354 3.58605 65.3563 4.02434C65.1766 4.46264 64.9368 5.02047 64.6778 5.65799C64.3983 6.2955 64.099 7.01274 63.7792 7.82952C63.4601 8.62644 63.1013 9.50304 62.7221 10.4394H68.6889C68.4094 9.72216 68.1498 9.00498 67.8703 8.28774C67.5909 7.57056 67.312 6.87324 67.0524 6.21582C66.7927 5.55838 66.5535 4.94078 66.3341 4.40288C66.0943 3.84505 65.9146 3.40675 65.7752 3.04814Z" fill="white"/>
        <path d="M96.3269 1.01614C95.9675 1.23529 95.688 1.57396 95.5089 2.0521C95.3887 2.29117 95.3292 2.72947 95.289 3.38691C95.2493 4.02443 95.2295 4.72172 95.1892 5.45886C95.1495 6.13621 95.1297 6.95305 95.1092 7.88941C95.0894 8.82577 95.0696 9.82189 95.0696 10.8778C95.0696 11.3161 95.0696 11.8341 95.0696 12.4118C95.0696 12.9697 95.0696 13.5474 95.0894 14.1252C95.0894 14.7029 95.1092 15.2807 95.1092 15.8584C95.1092 16.4362 95.1092 16.9542 95.1092 17.4124C95.1092 17.4721 95.0894 17.5319 95.0497 17.5717C95.0095 17.6116 94.95 17.6315 94.8701 17.6315C94.7504 17.6315 94.5906 17.5518 94.4307 17.3925C93.0742 15.8385 91.8368 14.4041 90.7195 13.0892C89.6016 11.7743 88.5438 10.5391 87.5263 9.34375C86.5082 8.14837 85.5105 6.99289 84.5525 5.87723C83.5747 4.74165 82.5572 3.56622 81.4597 2.37086V12.4517C81.4597 13.2685 81.4795 14.0056 81.5192 14.6431C81.5595 15.3006 81.6592 15.7788 81.8185 16.0975C81.9982 16.4561 82.2777 16.735 82.6371 16.9143C83.0163 17.0936 83.535 17.2331 84.1739 17.3128V17.5518H78.2864V17.3128C78.6656 17.2729 79.0449 17.1733 79.4439 17.0139C79.8232 16.8545 80.1225 16.6154 80.3623 16.2569C80.5816 15.9182 80.7211 15.4201 80.801 14.7826C80.8611 14.1251 80.9206 13.3482 80.9404 12.4317C80.9807 11.7544 81.0005 10.9375 81.0204 10.0012C81.0402 9.06481 81.0402 8.06869 81.0402 7.01281C81.0402 6.55459 81.0402 6.17605 81.0402 5.85731C81.0402 5.55847 81.0402 5.25963 81.0402 4.98072C81.0402 4.7018 81.0402 4.40297 81.0402 4.10413C81.0402 3.78537 81.0402 3.38691 81.0204 2.92869C80.9807 2.47047 80.8611 2.09195 80.6814 1.79311C80.5017 1.49428 80.3022 1.27513 80.0624 1.09583C79.8232 0.936443 79.5635 0.816905 79.2847 0.737213C79.0052 0.657527 78.7455 0.617681 78.4859 0.577838V0.338765H83.3355L94.6705 13.5673V5.43893C94.6705 4.80141 94.6705 4.18382 94.6507 3.60607C94.6308 3.02831 94.5707 2.57009 94.4307 2.23141C94.2714 1.79311 93.992 1.41458 93.5731 1.13567C93.174 0.856751 92.5748 0.657527 91.8169 0.557914V0.318848H97.7435V0.557914C97.1647 0.657527 96.6863 0.796991 96.3269 1.01614Z" fill="white"/>
        <path d="M100.818 12.8103C100.938 13.0892 101.098 13.388 101.277 13.7068C101.457 14.0255 101.636 14.3045 101.816 14.5833C101.996 14.8623 102.175 15.1014 102.355 15.3404C102.535 15.5795 102.674 15.7389 102.814 15.8584C103.153 16.1772 103.513 16.3963 103.912 16.4959C104.311 16.5956 104.81 16.6553 105.408 16.6752C105.707 16.6752 105.967 16.6752 106.206 16.6952C106.426 16.6952 106.646 16.7151 106.885 16.7151C107.084 16.7151 107.324 16.7151 107.583 16.7151C107.823 16.7151 108.122 16.7151 108.461 16.7151C108.461 16.3166 108.461 15.7787 108.481 15.0814C108.481 14.4041 108.502 13.6869 108.502 12.9298C108.502 12.1727 108.502 11.4356 108.502 10.6985C108.502 9.98128 108.502 9.38362 108.502 8.88556V3.58614C108.502 3.12793 108.481 2.68963 108.461 2.25133C108.441 1.83296 108.362 1.53412 108.242 1.35482C108.003 0.996217 107.663 0.757142 107.224 0.63761C106.785 0.518074 106.386 0.418463 106.047 0.358695V0.119629H113.83V0.358695C113.411 0.39854 113.012 0.478233 112.632 0.597768C112.253 0.717302 111.874 0.976298 111.514 1.39467C111.435 1.47436 111.375 1.61382 111.335 1.79312C111.295 1.97242 111.255 2.19157 111.236 2.41072C111.215 2.64979 111.195 2.88885 111.195 3.16777C111.195 3.44668 111.175 3.70568 111.175 3.96467C111.175 4.18382 111.175 4.48266 111.156 4.84126C111.156 5.19987 111.136 5.61824 111.136 6.05656C111.136 6.49486 111.115 6.973 111.115 7.45114C111.115 7.92928 111.115 8.38744 111.115 8.80582V16.7151C111.455 16.7151 111.754 16.7151 111.993 16.7151C112.233 16.7151 112.472 16.7151 112.692 16.7151C112.892 16.7151 113.111 16.7151 113.351 16.6952C113.59 16.6952 113.849 16.6752 114.149 16.6752C114.748 16.6553 115.247 16.5956 115.646 16.4561C116.045 16.3365 116.404 16.0975 116.743 15.7787C116.863 15.6592 117.023 15.4998 117.182 15.2807C117.342 15.0615 117.522 14.8224 117.701 14.5435C117.881 14.2646 118.06 14.0056 118.22 13.6869C118.38 13.388 118.519 13.0892 118.619 12.8103L118.838 12.89L118.12 17.4323C117.761 17.3526 117.422 17.2928 117.103 17.2331C116.783 17.1932 116.344 17.1534 115.746 17.1335C115.147 17.1135 114.588 17.1135 114.109 17.0936C113.63 17.0936 113.171 17.0737 112.712 17.0737C112.253 17.0737 111.814 17.0737 111.355 17.0737C110.876 17.0737 110.337 17.0737 109.759 17.0737C109.16 17.0737 108.641 17.0737 108.182 17.0737C107.703 17.0737 107.244 17.0737 106.785 17.0936C106.346 17.0936 105.867 17.1135 105.388 17.1135C104.909 17.1135 104.37 17.1335 103.752 17.1335C103.233 17.1534 102.794 17.1932 102.455 17.2729C102.115 17.3526 101.756 17.4323 101.397 17.5518L100.639 12.89L100.818 12.8103Z" fill="white"/>
        <path d="M17.9605 4.82114C17.8407 4.54223 17.6811 4.24339 17.5015 3.92463C17.3218 3.60587 17.1423 3.32696 16.9627 3.04804C16.783 2.76912 16.6034 2.53006 16.4238 2.29099C16.2442 2.05192 16.1045 1.89254 15.9649 1.773C15.6256 1.45424 15.2664 1.23509 14.8672 1.13548C14.4681 1.03587 13.9692 0.976103 13.3706 0.956177C13.0712 0.956177 12.8118 0.956177 12.5723 0.936257C12.3528 0.936257 12.1333 0.916337 11.8938 0.916337C11.6943 0.916337 11.4548 0.916337 11.1954 0.916337C10.9559 0.916337 10.6565 0.916337 10.3173 0.916337C10.3173 1.31478 10.3173 1.85269 10.2973 2.54998C10.2973 3.22734 10.2774 3.94455 10.2774 4.70161C10.2774 5.45867 10.2774 6.1958 10.2774 6.9329C10.2774 7.65014 10.2774 8.2478 10.2774 8.74586V14.0452C10.2774 14.5035 10.2973 14.9418 10.3173 15.3801C10.3373 15.7984 10.4171 16.0973 10.5368 16.2766C10.7763 16.6352 11.1155 16.8742 11.5545 16.9938C11.9936 17.1133 12.3927 17.2129 12.732 17.2727V17.5118H4.9491V17.2727C5.36818 17.2329 5.7673 17.1532 6.14647 17.0337C6.52565 16.9141 6.90482 16.6551 7.26399 16.2367C7.3438 16.1571 7.40372 16.0176 7.44363 15.8383C7.48354 15.659 7.52344 15.4398 7.5434 15.2207C7.56335 14.9816 7.5833 14.7426 7.5833 14.4636C7.5833 14.1847 7.60326 13.9257 7.60326 13.6668C7.60326 13.4476 7.60326 13.1487 7.62321 12.7902C7.62321 12.4315 7.64317 12.0132 7.64317 11.5749C7.64317 11.1366 7.66312 10.6584 7.66312 10.1803C7.66312 9.70214 7.66312 9.24392 7.66312 8.82554V0.916337C7.32385 0.916337 7.02455 0.916337 6.78504 0.916337C6.5456 0.916337 6.3061 0.916337 6.08661 0.916337C5.88704 0.916337 5.66752 0.916331 5.42805 0.936257C5.18857 0.936257 4.92915 0.956177 4.6298 0.956177C4.03113 0.976103 3.53222 1.03587 3.1331 1.17533C2.73398 1.29486 2.37477 1.53393 2.03552 1.85269C1.91578 1.97223 1.75613 2.13161 1.59649 2.35075C1.43683 2.5699 1.25723 2.80897 1.07763 3.08789C0.898023 3.3668 0.718417 3.62579 0.558769 3.94455C0.399121 4.24339 0.259428 4.54223 0.159649 4.82114L0 4.74145L0.718417 0.199127C1.07763 0.278816 1.41688 0.338584 1.73617 0.398351C2.05547 0.438196 2.4945 0.478041 3.09319 0.497964C3.69187 0.517886 4.25064 0.517883 4.72958 0.537805C5.20853 0.537805 5.66752 0.557729 6.12652 0.557729C6.58551 0.557729 7.02455 0.557729 7.48354 0.557729C7.96248 0.557729 8.50129 0.557729 9.08 0.557729C9.67867 0.557729 10.1975 0.557729 10.6565 0.557729C11.1355 0.557729 11.5944 0.557727 12.0534 0.537805C12.4925 0.537805 12.9714 0.517888 13.4504 0.517888C13.9293 0.517888 14.4681 0.497964 15.0868 0.497964C15.6056 0.478041 16.0447 0.438194 16.3839 0.358504C16.7232 0.278814 17.0824 0.199125 17.4416 0.0795898L18.1999 4.74145L17.9605 4.82114Z" fill="white"/>
    </g>
    <defs>
        <clipPath id="clip0_1583_1871">
            <rect width="119" height="36" fill="white"/>
        </clipPath>
    </defs>
</svg>
