<svg xmlns="http://www.w3.org/2000/svg" width="53" height="61" viewBox="0 0 53 61" fill="none">
<path fill-rule="evenodd" clip-rule="evenodd" d="M30.8359 52.9403C43.2272 50.8015 52.6531 40.0007 52.6531 26.9984C52.6531 12.4587 40.8663 0.671875 26.3265 0.671875C11.7868 0.671875 0 12.4587 0 26.9984C0 39.7399 9.05151 50.3672 21.0751 52.8011L26 60.5L30.8359 52.9403Z" fill="#242A35"/>
<path d="M26.199 31.1858C26.3076 31.4143 26.4252 31.6516 26.57 31.9065C26.7147 32.1525 26.8595 32.3898 27.0133 32.6095C27.1671 32.8293 27.3118 33.0314 27.4566 33.2159C27.6013 33.4005 27.728 33.5411 27.8275 33.629C28.108 33.8839 28.4065 34.0508 28.7232 34.1387C29.0489 34.2178 29.456 34.2706 29.9536 34.2793C30.2069 34.2793 30.424 34.2793 30.6049 34.2881C30.7859 34.2969 30.9759 34.2969 31.1568 34.2969C31.3287 34.2969 31.5187 34.2969 31.7268 34.2969C31.9258 34.2969 32.1701 34.2969 32.4596 34.2969C32.4596 33.9805 32.4596 33.5411 32.4686 32.9962C32.4777 32.4426 32.4777 31.8713 32.4777 31.2737C32.4777 30.6761 32.4777 30.0785 32.4777 29.4896C32.4777 28.9184 32.4777 28.4262 32.4777 28.0308V23.7772C32.4777 23.408 32.4686 23.0477 32.4505 22.7137C32.4324 22.3798 32.3691 22.1337 32.2606 21.9931C32.0615 21.7119 31.7811 21.5185 31.4192 21.4218C31.0573 21.3164 30.7316 21.2461 30.4421 21.1933V21H36.8565V21.1933C36.5127 21.2285 36.187 21.2988 35.8703 21.3867C35.5537 21.4746 35.2461 21.6855 34.9385 22.0195C34.8752 22.081 34.8209 22.1864 34.7937 22.3358C34.7575 22.4852 34.7304 22.6522 34.7123 22.8368C34.6942 23.0213 34.6761 23.2235 34.6761 23.4432C34.6671 23.6629 34.6671 23.8738 34.6671 24.076C34.6671 24.2517 34.6671 24.489 34.658 24.7878C34.649 25.0778 34.649 25.4118 34.6399 25.7633C34.6309 26.1237 34.6309 26.4928 34.6309 26.8795C34.6309 27.2662 34.6309 27.6265 34.6309 27.9692V34.3145C34.9113 34.3145 35.1556 34.3145 35.3637 34.3145C35.5627 34.3145 35.7527 34.3145 35.9337 34.3145C36.1055 34.3145 36.2865 34.3145 36.4765 34.3057C36.6665 34.2969 36.8926 34.2969 37.1369 34.2969C37.6345 34.2881 38.0507 34.2266 38.3673 34.1212C38.693 34.0157 38.9916 33.8399 39.263 33.5851C39.3715 33.4972 39.4891 33.3653 39.6248 33.1808C39.7606 33.005 39.9053 32.8029 40.0591 32.592C40.2129 32.381 40.3577 32.1525 40.4934 31.9153C40.6291 31.6692 40.7376 31.4319 40.8191 31.2034L41 31.2649L40.4119 34.9121C40.1134 34.8506 39.8329 34.7979 39.5706 34.7539C39.3172 34.7188 38.9463 34.6924 38.4578 34.6748C37.9602 34.666 37.5078 34.6485 37.1188 34.6485C36.7298 34.6485 36.3408 34.6397 35.9698 34.6397C35.5989 34.6397 35.228 34.6397 34.848 34.6397C34.4499 34.6397 34.0157 34.6397 33.5271 34.6397C33.0386 34.6397 32.6043 34.6397 32.2244 34.6397C31.8263 34.6397 31.4463 34.6397 31.0754 34.6485C30.7045 34.6573 30.3245 34.6572 29.9264 34.666C29.5283 34.6748 29.085 34.6748 28.5875 34.6748C28.1532 34.6836 27.7913 34.7188 27.5109 34.7803C27.2304 34.8418 26.9318 34.9121 26.6333 35L26 31.2649L26.199 31.1858Z" fill="white"/>
<path d="M25.801 24.8142C25.6924 24.5857 25.5748 24.3484 25.43 24.0935C25.2853 23.8475 25.1405 23.6102 24.9867 23.3905C24.8329 23.1707 24.6882 22.9686 24.5434 22.7841C24.3987 22.5995 24.272 22.4589 24.1725 22.371C23.892 22.1161 23.5935 21.9492 23.2768 21.8613C22.9511 21.7822 22.544 21.7294 22.0464 21.7207C21.7931 21.7207 21.576 21.7207 21.3951 21.7119C21.2141 21.7031 21.0241 21.7031 20.8432 21.7031C20.6713 21.7031 20.4813 21.7031 20.2732 21.7031C20.0742 21.7031 19.8299 21.7031 19.5404 21.7031C19.5404 22.0195 19.5404 22.4589 19.5314 23.0038C19.5223 23.5486 19.5223 24.1287 19.5223 24.7263C19.5223 25.3239 19.5223 25.9215 19.5223 26.5104C19.5223 27.0816 19.5223 27.5738 19.5223 27.9692V32.2229C19.5223 32.592 19.5314 32.9523 19.5495 33.2863C19.5676 33.6202 19.6309 33.8663 19.7394 34.0069C19.9385 34.2881 20.2189 34.4815 20.5808 34.5782C20.9427 34.6836 21.2684 34.7539 21.5579 34.8067V35H15.1435V34.8067C15.4873 34.7715 15.813 34.7012 16.1297 34.6133C16.4463 34.5254 16.7539 34.3145 17.0615 33.9805C17.1248 33.919 17.1791 33.8136 17.2063 33.6642C17.2425 33.5148 17.2696 33.3478 17.2877 33.1632C17.3058 32.9787 17.3239 32.7765 17.3239 32.5568C17.3329 32.3371 17.3329 32.1262 17.3329 31.924C17.3329 31.7483 17.3329 31.511 17.342 31.2122C17.351 30.9222 17.351 30.5882 17.3601 30.2367C17.3691 29.8763 17.3691 29.5072 17.3691 29.1205C17.3691 28.7338 17.3691 28.3735 17.3691 28.0308V21.6855C17.0887 21.6855 16.8444 21.6855 16.6363 21.6855C16.4373 21.6855 16.2473 21.6855 16.0663 21.6855C15.8945 21.6855 15.7135 21.6855 15.5235 21.6943C15.3335 21.7031 15.1074 21.7031 14.8631 21.7031C14.3655 21.7119 13.9493 21.7734 13.6327 21.8788C13.307 21.9843 13.0084 22.1601 12.737 22.4149C12.6285 22.5028 12.5109 22.6347 12.3752 22.8192C12.2394 22.995 12.0947 23.1971 11.9409 23.408C11.7871 23.619 11.6423 23.8475 11.5066 24.0847C11.3709 24.3308 11.2624 24.5681 11.1809 24.7966L11 24.7351L11.5881 21.0879C11.8866 21.1494 12.1671 21.2021 12.4294 21.2461C12.6828 21.2812 13.0537 21.3076 13.5422 21.3252C14.0398 21.334 14.4922 21.3515 14.8812 21.3515C15.2793 21.3603 15.6592 21.3603 16.0302 21.3603C16.4011 21.3603 16.772 21.3603 17.152 21.3603C17.5501 21.3603 17.9843 21.3603 18.4729 21.3603C18.9614 21.3603 19.3957 21.3603 19.7756 21.3603C20.1737 21.3603 20.5537 21.3603 20.9246 21.3515C21.2955 21.3427 21.6755 21.3427 22.0736 21.334C22.4717 21.3252 22.915 21.3252 23.4125 21.3252C23.8468 21.3164 24.2087 21.2812 24.4891 21.2197C24.7696 21.1582 25.0682 21.0879 25.3667 21L26 24.7351L25.801 24.8142Z" fill="white"/>
<circle cx="26" cy="27" r="23.5" stroke="white"/>
</svg>