<svg width="26" height="14" viewBox="0 0 26 14" fill="none" xmlns="http://www.w3.org/2000/svg">
<g id="a" clip-path="url(#clip0_498_873)">
<path id="Vector" d="M13.0002 11.6517C10.536 11.6517 8.53064 9.56494 8.53064 6.99945C8.53064 4.43397 10.5355 2.34717 13.0002 2.34717C15.4649 2.34717 17.4698 4.43397 17.4698 6.99945C17.4698 9.56494 15.4649 11.6517 13.0002 11.6517ZM13.0002 3.67357C11.238 3.67357 9.80495 5.16577 9.80495 6.99945C9.80495 8.83313 11.2385 10.3253 13.0002 10.3253C14.7619 10.3253 16.1955 8.83313 16.1955 6.99945C16.1955 5.16577 14.7619 3.67357 13.0002 3.67357Z" fill="#D9D9D9"/>
<path id="Vector_2" d="M13.0003 14C10.1271 14 7.03217 12.8638 4.04913 10.7136C1.81459 9.10291 0.436421 7.50884 0.378997 7.44179L0 7L0.378997 6.55821C0.436421 6.49116 1.81459 4.89657 4.04913 3.28638C7.03167 1.13617 10.1271 0 13.0003 0C15.8734 0 18.9683 1.13617 21.9514 3.28638C24.1859 4.89709 25.5636 6.49116 25.6215 6.55821L26.0005 7L25.6215 7.44179C25.5641 7.50884 24.1859 9.10343 21.9514 10.7136C18.9683 12.8638 15.8734 14 13.0003 14ZM1.73869 7C2.28896 7.57017 3.36653 8.61175 4.80013 9.64189C6.72508 11.0249 9.71012 12.6741 13.0003 12.6741C16.2904 12.6741 19.2754 11.0255 21.2004 9.64189C22.634 8.61175 23.711 7.57017 24.2618 7C23.7115 6.42983 22.634 5.38825 21.2004 4.35811C19.2754 2.97505 16.2904 1.32588 13.0003 1.32588C9.71012 1.32588 6.72508 2.97453 4.80013 4.35811C3.36653 5.38825 2.28946 6.42983 1.73869 7Z" fill="#D9D9D9"/>
</g>
<defs>
<clipPath id="clip0_498_873">
<rect width="26" height="14" fill="white"/>
</clipPath>
</defs>
</svg>
