<svg width="32" height="32" viewBox="0 0 32 32" fill="none" xmlns="http://www.w3.org/2000/svg">
<g id="a" clip-path="url(#clip0_498_779)">
<path id="Vector" d="M20.9374 32C20.5343 31.8187 20.0936 31.6918 19.7361 31.4443C19.0568 30.9737 18.708 30.2831 18.6805 29.4506C18.6649 28.9837 18.678 28.5162 18.678 28H18.3236C17.0218 28 15.7193 28.0018 14.4174 28C12.2824 27.9956 10.6868 26.4075 10.673 24.2725C10.6693 23.6475 10.668 23.0225 10.6736 22.3975C10.6793 21.7787 11.093 21.3362 11.6593 21.3306C12.2161 21.325 12.658 21.775 12.6693 22.3831C12.6805 23.0081 12.668 23.6331 12.6736 24.2581C12.683 25.3056 13.3768 25.9968 14.423 26C15.7355 26.0037 17.048 26.0012 18.3605 26C18.4524 26 18.5436 25.9918 18.6724 25.9862V25.5762C18.6724 18.8887 18.6724 12.2012 18.6724 5.51372C18.6724 4.0931 19.3399 3.17685 20.683 2.73622C21.1374 2.58685 21.5893 2.4306 22.0424 2.27685C22.2561 2.20435 22.4699 2.13247 22.6793 2.0006H22.4255C19.7799 2.0006 17.1336 1.99997 14.488 2.0006C13.3561 2.0006 12.6774 2.67497 12.6724 3.80185C12.6699 4.41622 12.6805 5.03122 12.668 5.6456C12.658 6.11747 12.3755 6.4931 11.9705 6.61872C11.568 6.74372 11.1336 6.61685 10.8843 6.2731C10.7899 6.1431 10.6955 5.9756 10.693 5.82372C10.6811 4.92872 10.6186 4.02435 10.7186 3.13997C10.8949 1.57997 12.1236 0.357471 13.6686 0.0618457C13.7386 0.0487207 13.8061 0.0218457 13.8749 0.0012207C19.1455 0.0012207 24.4168 0.0012207 29.6874 0.0012207C30.1255 0.203096 30.5961 0.356221 30.9943 0.618721C31.5643 0.994971 31.8199 1.6106 31.9999 2.25122V27.0625C31.7043 28.3743 30.8205 29.0306 29.5786 29.4187C26.9562 30.2375 24.358 31.135 21.7499 32H20.9374ZM20.6718 17.3193C20.6718 21.2562 20.6855 25.1937 20.6586 29.1306C20.6543 29.8112 21.1893 30.1106 21.7511 29.9187C24.2793 29.0531 26.818 28.2193 29.353 27.3737C29.8649 27.2031 29.9999 27.0187 29.9999 26.485C29.9999 18.6106 29.9999 10.7362 29.9999 2.86122C29.9999 2.13622 29.6161 1.8606 28.9261 2.0906C26.4118 2.92997 23.8974 3.77122 21.383 4.61247C20.7518 4.82372 20.6718 4.93622 20.6718 5.60122C20.6718 9.50747 20.6718 13.4131 20.6718 17.3193Z" fill="white"/>
<path id="Vector_2" d="M0 13.75C0.2425 13.1788 0.675625 12.9875 1.28875 12.9913C4.47625 13.01 7.66375 13 10.8506 13H11.2388C11.1256 12.8782 11.0594 12.8025 10.9888 12.7319C9.98688 11.73 8.9825 10.7319 7.98438 9.72628C7.66062 9.40003 7.58437 8.95503 7.76125 8.57691C7.93687 8.20128 8.34188 7.93816 8.75 8.01691C8.99 8.06378 9.25313 8.18566 9.42625 8.35566C11.0825 9.98441 12.7231 11.6288 14.3644 13.2725C14.7944 13.7032 14.7987 14.29 14.3694 14.7207C12.7219 16.3732 11.0706 18.0213 9.41562 19.6657C8.97563 20.1025 8.36812 20.11 7.965 19.7063C7.55688 19.2982 7.57688 18.6819 8.02375 18.2325C9.00813 17.2432 9.99688 16.2582 10.9838 15.2707C11.055 15.1994 11.1225 15.1232 11.2388 15H10.8544C7.66687 15 4.47937 14.9894 1.2925 15.0088C0.678125 15.0125 0.2475 14.8175 0.001875 14.25V13.75H0Z" fill="white"/>
</g>
<defs>
<clipPath id="clip0_498_779">
<rect width="32" height="32" fill="white"/>
</clipPath>
</defs>
</svg>
