<svg viewBox="0 0 30 26" fill="none" xmlns="http://www.w3.org/2000/svg">
    <path d="M5.81283 13.0958L1.40122 20.5022C1.31063 20.655 1.21729 20.8106 1.12395 20.9634C0.835704 21.4412 0.536473 21.9357 0.275675 22.4357C-0.0839518 23.1275 -0.0921876 23.8387 0.253713 24.5526C0.723149 25.525 1.51103 25.9972 2.66403 25.9972H2.66678C8.81063 25.9917 14.9545 25.9944 21.0983 25.9944H27.3465C27.4316 25.9944 27.5195 25.9944 27.6046 25.9917C28.3897 25.9639 28.9936 25.6666 29.3972 25.111C29.5784 24.8638 29.7019 24.5637 29.8364 24.247C29.8913 24.1192 29.9435 23.9887 30.0011 23.8637V23.1469C29.949 23.0247 29.8996 22.8997 29.8474 22.7747C29.7266 22.4746 29.6113 22.1885 29.4576 21.9301C26.3966 16.774 23.3275 11.6235 20.2583 6.47291L19.0421 4.43381C18.8774 4.15878 18.7155 3.88375 18.5535 3.60872C18.0621 2.77807 17.5542 1.91965 17.0299 1.09178C16.5769 0.37504 15.9071 0.00555615 15.0396 0H15.0176C14.0705 0 13.3485 0.441714 12.805 1.35292C10.4742 5.26723 8.14354 9.18154 5.81008 13.0958H5.81283ZM13.9854 2.13634L14.0101 2.09189C14.0513 2.01966 14.0952 1.95021 14.1419 1.88353C14.3615 1.58072 14.6882 1.4196 15.0204 1.41126C15.3525 1.41404 15.6628 1.58628 15.8714 1.88631C16.0032 2.07244 16.1157 2.26691 16.2228 2.45582C16.264 2.52805 16.3079 2.60306 16.3518 2.67529C20.3352 9.35933 24.3185 16.0434 28.2991 22.7274L28.3266 22.7719C28.3897 22.8774 28.4556 22.9858 28.505 23.1108C28.623 23.4053 28.6093 23.7303 28.4693 24.0026C28.3293 24.272 28.074 24.4665 27.7693 24.536C27.6018 24.5748 27.4371 24.5748 27.2916 24.5748C24.2938 24.5748 21.296 24.5748 18.2982 24.5748H13.3595C9.81539 24.5748 6.27128 24.5748 2.72992 24.5748C2.58442 24.5748 2.41696 24.5748 2.25225 24.536C1.94753 24.4665 1.68947 24.272 1.54947 24.0026C1.40946 23.7303 1.39573 23.4081 1.51103 23.1136C1.56045 22.9858 1.62633 22.8774 1.69222 22.7719L1.71693 22.7302C5.80459 15.8656 9.895 9.00096 13.9854 2.13634Z" fill="#DB524E"/>
    <path d="M16.2066 12.8986C16.1681 14.146 16.127 15.3933 16.0885 16.6379C16.0748 17.1102 15.9403 17.2991 15.5065 17.4769C15.1551 17.6213 14.8037 17.6019 14.4578 17.4824C14.1229 17.3685 13.9445 17.1241 13.9308 16.7574C13.8484 14.2626 13.7606 11.7707 13.6782 9.276C13.6562 8.62315 13.9225 8.23144 14.4771 8.05365C15.1194 7.84807 15.8662 8.02586 16.1434 8.50647C16.2697 8.72594 16.3301 9.01764 16.3274 9.276C16.3136 10.4817 16.2697 11.6901 16.234 12.8958H16.2038L16.2066 12.8986Z" fill="#DB524E"/>
    <path d="M13.626 20.3188C13.6233 19.5187 14.2492 18.8742 15.0316 18.8742C15.7811 18.8742 16.4317 19.5326 16.4372 20.3022C16.4427 21.0606 15.792 21.7412 15.0453 21.7495C14.2712 21.7607 13.626 21.1134 13.6233 20.3161L13.626 20.3188Z" fill="#DB524E"/>
</svg>
