<?xml version="1.0" encoding="UTF-8"?>
<!DOCTYPE svg PUBLIC "-//W3C//DTD SVG 1.1//EN" "http://www.w3.org/Graphics/SVG/1.1/DTD/svg11.dtd">
<svg xmlns="http://www.w3.org/2000/svg" version="1.1" width="5000px" height="2360px" style="shape-rendering:geometricPrecision; text-rendering:geometricPrecision; image-rendering:optimizeQuality; fill-rule:evenodd; clip-rule:evenodd" xmlns:xlink="http://www.w3.org/1999/xlink">
<g><path style="opacity:1" fill="#fefefe" d="M -0.5,-0.5 C 1666.17,-0.5 3332.83,-0.5 4999.5,-0.5C 4999.5,786.167 4999.5,1572.83 4999.5,2359.5C 3332.83,2359.5 1666.17,2359.5 -0.5,2359.5C -0.5,1572.83 -0.5,786.167 -0.5,-0.5 Z"/></g>
<g><path style="opacity:1" fill="#9a0000" d="M 207.5,109.5 C 1739.83,109.333 3272.17,109.5 4804.5,110C 4819.01,113.842 4828.18,123.009 4832,137.5C 4832.67,825.833 4832.67,1514.17 4832,2202.5C 4828.83,2219 4819,2228.83 4802.5,2232C 3269.46,2233 1736.46,2232.67 203.5,2231C 190.626,2226.13 182.792,2216.96 180,2203.5C 179.333,1514.83 179.333,826.167 180,137.5C 184.016,122.985 193.183,113.652 207.5,109.5 Z"/></g>
<g><path style="opacity:1" fill="#fefefe" d="M 208.5,119.5 C 1740.17,119.333 3271.83,119.5 4803.5,120C 4813,122.833 4819.17,129 4822,138.5C 4822.67,826.5 4822.67,1514.5 4822,2202.5C 4819.5,2213 4813,2219.5 4802.5,2222C 3270.11,2223 1737.78,2222.67 205.5,2221C 197.507,2217.67 192.341,2211.84 190,2203.5C 189.333,1515.17 189.333,826.833 190,138.5C 193.017,128.984 199.184,122.651 208.5,119.5 Z"/></g>
<g><path style="opacity:1" fill="#ac0100" d="M 1300.5,658.5 C 1323.78,657.829 1346.78,659.996 1369.5,665C 1404.86,674.365 1428.69,696.198 1441,730.5C 1448.31,765.245 1438.47,794.078 1411.5,817C 1403.18,823.164 1394.51,828.831 1385.5,834C 1442.36,853.873 1464.86,893.373 1453,952.5C 1444.56,981.949 1426.39,1003.12 1398.5,1016C 1363.93,1028.95 1328.26,1033.28 1291.5,1029C 1264.61,1027.81 1240.28,1019.48 1218.5,1004C 1199.98,986.93 1187.98,966.263 1182.5,942C 1204.04,934.821 1225.54,927.654 1247,920.5C 1250.26,930.344 1254.59,939.678 1260,948.5C 1269.27,960.391 1281.43,967.557 1296.5,970C 1315.16,972.965 1333.5,971.632 1351.5,966C 1377.41,953.016 1386.57,932.516 1379,904.5C 1369.46,886.798 1354.62,876.631 1334.5,874C 1321.21,872.643 1307.87,872.143 1294.5,872.5C 1294.5,854.5 1294.5,836.5 1294.5,818.5C 1312.73,820.019 1330.07,816.852 1346.5,809C 1365.56,796.7 1373.73,779.2 1371,756.5C 1365.1,734.107 1350.6,721.274 1327.5,718C 1308.16,714.861 1290.83,719.195 1275.5,731C 1266.85,739.472 1261.18,749.639 1258.5,761.5C 1234.61,757.188 1210.94,751.855 1187.5,745.5C 1198.35,704.479 1224.02,677.646 1264.5,665C 1276.56,662.351 1288.56,660.184 1300.5,658.5 Z"/></g>
<g><path style="opacity:1" fill="#ac0100" d="M 2647.5,658.5 C 2676.16,657.219 2703.82,661.719 2730.5,672C 2772.25,692.997 2789.41,726.497 2782,772.5C 2776.81,790.375 2766.98,805.208 2752.5,817C 2744.18,823.164 2735.51,828.831 2726.5,834C 2786.72,855.607 2808.56,897.441 2792,959.5C 2779.88,990.288 2758.04,1010.79 2726.5,1021C 2680.39,1033.98 2634.39,1033.64 2588.5,1020C 2560.03,1008.86 2540.19,989.026 2529,960.5C 2526.93,954.794 2524.76,949.128 2522.5,943.5C 2522.71,942.914 2523.04,942.414 2523.5,942C 2544.89,934.925 2566.23,927.758 2587.5,920.5C 2591.18,930.199 2595.68,939.533 2601,948.5C 2610.27,960.391 2622.43,967.557 2637.5,970C 2656.2,973.001 2674.53,971.667 2692.5,966C 2718.41,953.016 2727.57,932.516 2720,904.5C 2708.85,884.495 2691.69,873.995 2668.5,873C 2657.51,872.5 2646.51,872.333 2635.5,872.5C 2635.5,854.5 2635.5,836.5 2635.5,818.5C 2653.73,819.922 2671.06,816.755 2687.5,809C 2706.56,796.7 2714.73,779.2 2712,756.5C 2706.36,734.405 2692.19,721.571 2669.5,718C 2649.82,714.729 2632.16,719.063 2616.5,731C 2607.85,739.472 2602.18,749.639 2599.5,761.5C 2575.58,757.183 2551.91,751.85 2528.5,745.5C 2543.65,694.73 2577.65,666.23 2630.5,660C 2636.35,659.827 2642.01,659.327 2647.5,658.5 Z"/></g>
<g><path style="opacity:1" fill="#ac0100" d="M 2118.5,663.5 C 2126.17,663.5 2133.83,663.5 2141.5,663.5C 2141.5,681.167 2141.5,698.833 2141.5,716.5C 2130.45,716.15 2119.45,716.65 2108.5,718C 2093.12,723.048 2082.62,733.214 2077,748.5C 2069.12,770.154 2060.45,791.488 2051,812.5C 2043.6,823.394 2034.1,832.061 2022.5,838.5C 2038.57,843.782 2051.74,853.115 2062,866.5C 2072,880.498 2081,895.165 2089,910.5C 2107.77,947.71 2126.27,985.043 2144.5,1022.5C 2116.51,1023.67 2088.51,1023.83 2060.5,1023C 2045.14,989.788 2029.64,956.622 2014,923.5C 2006.42,908.675 1998.09,894.342 1989,880.5C 1979.81,870.268 1968.31,865.601 1954.5,866.5C 1954.5,918.833 1954.5,971.167 1954.5,1023.5C 1930.5,1023.5 1906.5,1023.5 1882.5,1023.5C 1882.5,904.167 1882.5,784.833 1882.5,665.5C 1906.5,665.5 1930.5,665.5 1954.5,665.5C 1954.5,716.167 1954.5,766.833 1954.5,817.5C 1967.3,817.181 1978.47,812.848 1988,804.5C 1992.51,797.487 1996.51,790.153 2000,782.5C 2009.63,756.913 2020.63,731.913 2033,707.5C 2040.46,694.043 2050.63,683.21 2063.5,675C 2081.32,668.137 2099.65,664.304 2118.5,663.5 Z"/></g>
<g><path style="opacity:1" fill="#ac0100" d="M 1622.5,665.5 C 1648.18,665.167 1673.84,665.5 1699.5,666.5C 1747.17,785.167 1794.83,903.833 1842.5,1022.5C 1816.51,1023.67 1790.51,1023.83 1764.5,1023C 1754.07,996.556 1743.74,970.056 1733.5,943.5C 1685.5,942.333 1637.5,942.167 1589.5,943C 1579.4,969.688 1569.74,996.522 1560.5,1023.5C 1534.83,1023.67 1509.16,1023.5 1483.5,1023C 1529.98,903.883 1576.31,784.716 1622.5,665.5 Z"/></g>
<g><path style="opacity:1" fill="#ac0100" d="M 2289.5,665.5 C 2315.41,665.172 2341.24,665.505 2367,666.5C 2414.21,785.286 2461.71,903.953 2509.5,1022.5C 2483.18,1023.5 2456.84,1023.83 2430.5,1023.5C 2421.1,996.636 2411.1,969.97 2400.5,943.5C 2352.5,942.333 2304.5,942.167 2256.5,943C 2246.4,969.688 2236.74,996.522 2227.5,1023.5C 2201.83,1023.67 2176.16,1023.5 2150.5,1023C 2196.98,903.883 2243.31,784.716 2289.5,665.5 Z"/></g>
<g><path style="opacity:1" fill="#ac0000" d="M 3000.5,665.5 C 3024.5,665.5 3048.5,665.5 3072.5,665.5C 3072.5,712.5 3072.5,759.5 3072.5,806.5C 3119.83,806.5 3167.17,806.5 3214.5,806.5C 3214.5,759.5 3214.5,712.5 3214.5,665.5C 3238.5,665.5 3262.5,665.5 3286.5,665.5C 3286.5,784.833 3286.5,904.167 3286.5,1023.5C 3262.5,1023.5 3238.5,1023.5 3214.5,1023.5C 3214.5,971.5 3214.5,919.5 3214.5,867.5C 3167.17,867.5 3119.83,867.5 3072.5,867.5C 3072.5,919.5 3072.5,971.5 3072.5,1023.5C 3048.5,1023.5 3024.5,1023.5 3000.5,1023.5C 3000.5,904.167 3000.5,784.833 3000.5,665.5 Z"/></g>
<g><path style="opacity:1" fill="#ac0100" d="M 3463.5,665.5 C 3489.41,665.172 3515.24,665.505 3541,666.5C 3588.21,785.286 3635.71,903.953 3683.5,1022.5C 3657.18,1023.5 3630.84,1023.83 3604.5,1023.5C 3595.1,996.636 3585.1,969.97 3574.5,943.5C 3526.5,942.333 3478.5,942.167 3430.5,943C 3420.4,969.688 3410.74,996.522 3401.5,1023.5C 3375.83,1023.67 3350.16,1023.5 3324.5,1023C 3370.98,903.883 3417.31,784.716 3463.5,665.5 Z"/></g>
<g><path style="opacity:1" fill="#fefcfc" d="M 1659.5,749.5 C 1661.64,751.7 1663.14,754.367 1664,757.5C 1679.47,798.753 1694.64,840.087 1709.5,881.5C 1676.83,881.667 1644.16,881.5 1611.5,881C 1627.8,837.275 1643.8,793.441 1659.5,749.5 Z"/></g>
<g><path style="opacity:1" fill="#fefcfc" d="M 2326.5,748.5 C 2343.92,792.426 2360.59,836.759 2376.5,881.5C 2343.83,881.667 2311.16,881.5 2278.5,881C 2295,837.006 2311,792.839 2326.5,748.5 Z"/></g>
<g><path style="opacity:1" fill="#fefcfc" d="M 3500.5,748.5 C 3517.92,792.426 3534.59,836.759 3550.5,881.5C 3517.83,881.667 3485.16,881.5 3452.5,881C 3469,837.006 3485,792.839 3500.5,748.5 Z"/></g>
<g><path style="opacity:1" fill="#ac0100" d="M 1247.5,1258.5 C 1287.11,1255.79 1324.44,1263.62 1359.5,1282C 1404.88,1311.46 1430.72,1353.29 1437,1407.5C 1442.17,1447.99 1438.5,1487.66 1426,1526.5C 1403.96,1582.2 1363.46,1615.7 1304.5,1627C 1267.78,1633.69 1231.78,1631.03 1196.5,1619C 1139.22,1595.02 1105.72,1552.19 1096,1490.5C 1088.97,1447.43 1091.97,1405.1 1105,1363.5C 1131.1,1299.37 1178.6,1264.37 1247.5,1258.5 Z"/></g>
<g><path style="opacity:1" fill="#ac0100" d="M 1948.5,1258.5 C 1971.78,1257.83 1994.78,1260 2017.5,1265C 2052.86,1274.36 2076.69,1296.2 2089,1330.5C 2096.31,1365.24 2086.47,1394.08 2059.5,1417C 2051.18,1423.16 2042.51,1428.83 2033.5,1434C 2090.36,1453.87 2112.86,1493.37 2101,1552.5C 2092.56,1581.95 2074.39,1603.12 2046.5,1616C 2011.93,1628.95 1976.26,1633.28 1939.5,1629C 1912.61,1627.81 1888.28,1619.48 1866.5,1604C 1847.98,1586.93 1835.98,1566.26 1830.5,1542C 1852.04,1534.82 1873.54,1527.65 1895,1520.5C 1898.26,1530.34 1902.59,1539.68 1908,1548.5C 1917.27,1560.39 1929.43,1567.56 1944.5,1570C 1963.16,1572.97 1981.5,1571.63 1999.5,1566C 2025.41,1553.02 2034.57,1532.52 2027,1504.5C 2017.46,1486.8 2002.62,1476.63 1982.5,1474C 1969.21,1472.64 1955.87,1472.14 1942.5,1472.5C 1942.5,1454.5 1942.5,1436.5 1942.5,1418.5C 1960.73,1420.02 1978.07,1416.85 1994.5,1409C 2013.56,1396.7 2021.73,1379.2 2019,1356.5C 2013.1,1334.11 1998.6,1321.27 1975.5,1318C 1956.16,1314.86 1938.83,1319.19 1923.5,1331C 1914.85,1339.47 1909.18,1349.64 1906.5,1361.5C 1882.61,1357.19 1858.94,1351.85 1835.5,1345.5C 1846.35,1304.48 1872.02,1277.65 1912.5,1265C 1924.56,1262.35 1936.56,1260.18 1948.5,1258.5 Z"/></g>
<g><path style="opacity:1" fill="#ac0100" d="M 2657.5,1258.5 C 2697.11,1255.79 2734.44,1263.62 2769.5,1282C 2806.71,1305.55 2830.87,1338.72 2842,1381.5C 2854.73,1434.25 2851.4,1485.91 2832,1536.5C 2803.52,1594.69 2756.69,1625.86 2691.5,1630C 2654.67,1632.71 2619.67,1626.04 2586.5,1610C 2546.92,1587.39 2521.42,1553.89 2510,1509.5C 2499.67,1464.74 2500,1420.07 2511,1375.5C 2534.58,1304.65 2583.41,1265.65 2657.5,1258.5 Z"/></g>
<g><path style="opacity:1" fill="#ac0100" d="M 3394.5,1258.5 C 3421.91,1257.26 3448.58,1261.09 3474.5,1270C 3516.89,1287.61 3543.22,1318.78 3553.5,1363.5C 3529.87,1368.72 3506.37,1374.39 3483,1380.5C 3472.23,1341.4 3446.56,1321.4 3406,1320.5C 3365.19,1322.41 3338.19,1342.75 3325,1381.5C 3316.11,1418.58 3315.11,1455.91 3322,1493.5C 3332.98,1545.15 3364.81,1569.65 3417.5,1567C 3446.38,1561.46 3466.21,1544.96 3477,1517.5C 3480.01,1509.29 3482.51,1500.96 3484.5,1492.5C 3508.17,1498.84 3531.51,1506.17 3554.5,1514.5C 3533.89,1591.66 3483.55,1629.99 3403.5,1629.5C 3346.64,1628.33 3302.47,1604.33 3271,1557.5C 3251.65,1523.09 3242.48,1486.09 3243.5,1446.5C 3242.4,1407.24 3250.9,1370.24 3269,1335.5C 3297.97,1289.07 3339.8,1263.4 3394.5,1258.5 Z"/></g>
<g><path style="opacity:1" fill="#ac0100" d="M 4398.5,1258.5 C 4438.12,1255.79 4475.45,1263.62 4510.5,1282C 4547.71,1305.55 4571.87,1338.72 4583,1381.5C 4595.73,1434.24 4592.4,1485.91 4573,1536.5C 4544.52,1594.69 4497.69,1625.86 4432.5,1630C 4395.67,1632.71 4360.67,1626.04 4327.5,1610C 4287.92,1587.39 4262.42,1553.89 4251,1509.5C 4240.71,1464.74 4241.04,1420.08 4252,1375.5C 4275.57,1304.66 4324.4,1265.66 4398.5,1258.5 Z"/></g>
<g><path style="opacity:1" fill="#ac0100" d="M 421.5,1265.5 C 516.5,1265.5 611.5,1265.5 706.5,1265.5C 706.5,1384.83 706.5,1504.17 706.5,1623.5C 682.5,1623.5 658.5,1623.5 634.5,1623.5C 634.5,1524.5 634.5,1425.5 634.5,1326.5C 587.5,1326.5 540.5,1326.5 493.5,1326.5C 493.5,1425.5 493.5,1524.5 493.5,1623.5C 469.5,1623.5 445.5,1623.5 421.5,1623.5C 421.5,1504.17 421.5,1384.83 421.5,1265.5 Z"/></g>
<g><path style="opacity:1" fill="#ac0100" d="M 780.5,1265.5 C 826.168,1265.33 871.835,1265.5 917.5,1266C 938.971,1266.03 960.305,1267.7 981.5,1271C 1013.99,1280.82 1036.15,1301.65 1048,1333.5C 1054.56,1358.64 1055.23,1383.97 1050,1409.5C 1037.79,1450.71 1010.63,1475.54 968.5,1484C 958.879,1485.44 949.212,1486.44 939.5,1487C 910.513,1488.22 881.513,1488.72 852.5,1488.5C 852.5,1533.5 852.5,1578.5 852.5,1623.5C 828.5,1623.5 804.5,1623.5 780.5,1623.5C 780.5,1504.17 780.5,1384.83 780.5,1265.5 Z"/></g>
<g><path style="opacity:1" fill="#ac0200" d="M 1714.5,1623.5 C 1714.83,1545.83 1714.5,1468.16 1713.5,1390.5C 1712.89,1390.62 1712.56,1390.96 1712.5,1391.5C 1665.09,1468.64 1617.43,1545.64 1569.5,1622.5C 1545.18,1623.5 1520.84,1623.83 1496.5,1623.5C 1496.5,1504.17 1496.5,1384.83 1496.5,1265.5C 1519.17,1265.5 1541.83,1265.5 1564.5,1265.5C 1564.33,1344.83 1564.5,1424.17 1565,1503.5C 1612.75,1424.33 1660.75,1345.33 1709,1266.5C 1733.09,1265.51 1757.26,1265.17 1781.5,1265.5C 1781.5,1384.83 1781.5,1504.17 1781.5,1623.5C 1759.17,1623.5 1736.83,1623.5 1714.5,1623.5 Z"/></g>
<g><path style="opacity:1" fill="#ac0000" d="M 2169.5,1265.5 C 2221.83,1265.33 2274.17,1265.5 2326.5,1266C 2340.51,1266.41 2354.51,1267.08 2368.5,1268C 2404.42,1272.27 2429.92,1290.77 2445,1323.5C 2457.73,1360.73 2450.23,1393.23 2422.5,1421C 2415.9,1426.09 2408.9,1430.59 2401.5,1434.5C 2449.9,1450.27 2472.06,1483.61 2468,1534.5C 2456.55,1591.49 2421.72,1620.65 2363.5,1622C 2298.84,1623.33 2234.17,1623.83 2169.5,1623.5C 2169.5,1504.17 2169.5,1384.83 2169.5,1265.5 Z"/></g>
<g><path style="opacity:1" fill="#ac0000" d="M 2927.5,1265.5 C 3009.83,1265.5 3092.17,1265.5 3174.5,1265.5C 3174.5,1364.5 3174.5,1463.5 3174.5,1562.5C 3185.17,1562.5 3195.83,1562.5 3206.5,1562.5C 3206.5,1608.83 3206.5,1655.17 3206.5,1701.5C 3186.5,1701.5 3166.5,1701.5 3146.5,1701.5C 3146.5,1675.5 3146.5,1649.5 3146.5,1623.5C 3071.17,1623.5 2995.83,1623.5 2920.5,1623.5C 2920.5,1649.5 2920.5,1675.5 2920.5,1701.5C 2900.83,1701.5 2881.17,1701.5 2861.5,1701.5C 2861.5,1655.17 2861.5,1608.83 2861.5,1562.5C 2871.75,1562.82 2881.92,1562.49 2892,1561.5C 2907.51,1527.8 2917.18,1492.47 2921,1455.5C 2926.94,1392.31 2929.1,1328.97 2927.5,1265.5 Z"/></g>
<g><path style="opacity:1" fill="#ac0000" d="M 3579.5,1265.5 C 3674.17,1265.5 3768.83,1265.5 3863.5,1265.5C 3863.5,1285.83 3863.5,1306.17 3863.5,1326.5C 3828.17,1326.5 3792.83,1326.5 3757.5,1326.5C 3757.5,1425.5 3757.5,1524.5 3757.5,1623.5C 3733.5,1623.5 3709.5,1623.5 3685.5,1623.5C 3685.5,1524.5 3685.5,1425.5 3685.5,1326.5C 3650.17,1326.5 3614.83,1326.5 3579.5,1326.5C 3579.5,1306.17 3579.5,1285.83 3579.5,1265.5 Z"/></g>
<g><path style="opacity:1" fill="#ac0000" d="M 3910.5,1265.5 C 3962.83,1265.33 4015.17,1265.5 4067.5,1266C 4080.19,1266.31 4092.85,1266.98 4105.5,1268C 4151.31,1272.48 4179.81,1296.98 4191,1341.5C 4195.91,1383.69 4179.74,1414.69 4142.5,1434.5C 4190.9,1450.27 4213.06,1483.61 4209,1534.5C 4197.28,1591.79 4162.11,1620.96 4103.5,1622C 4039.18,1623.35 3974.84,1623.85 3910.5,1623.5C 3910.5,1504.17 3910.5,1384.83 3910.5,1265.5 Z"/></g>
<g><path style="opacity:1" fill="#fefefe" d="M 1251.5,1320.5 C 1310.52,1316.72 1347.02,1343.39 1361,1400.5C 1365.67,1428.83 1365.67,1457.17 1361,1485.5C 1345.61,1548.55 1305.78,1575.38 1241.5,1566C 1204.69,1554.52 1181.52,1530.02 1172,1492.5C 1164.14,1457.32 1164.81,1422.32 1174,1387.5C 1186.8,1349.86 1212.63,1327.52 1251.5,1320.5 Z"/></g>
<g><path style="opacity:1" fill="#fefefe" d="M 2661.5,1320.5 C 2720.52,1316.72 2757.02,1343.39 2771,1400.5C 2775.58,1428.82 2775.58,1457.16 2771,1485.5C 2757.83,1543.34 2721.66,1570.84 2662.5,1568C 2619.94,1559.77 2593.1,1534.61 2582,1492.5C 2574.14,1457.32 2574.81,1422.32 2584,1387.5C 2596.8,1349.86 2622.63,1327.52 2661.5,1320.5 Z"/></g>
<g><path style="opacity:1" fill="#fefefe" d="M 4402.5,1320.5 C 4461.53,1316.73 4498.03,1343.4 4512,1400.5C 4516.58,1428.82 4516.58,1457.16 4512,1485.5C 4498.83,1543.35 4462.66,1570.85 4403.5,1568C 4359.31,1559.15 4332.15,1532.65 4322,1488.5C 4314.95,1453.48 4316.28,1418.81 4326,1384.5C 4339.29,1348.36 4364.79,1327.02 4402.5,1320.5 Z"/></g>
<g><path style="opacity:1" fill="#fefefe" d="M 852.5,1326.5 C 875.836,1326.33 899.169,1326.5 922.5,1327C 941.326,1326.5 957.159,1333 970,1346.5C 979.415,1359.85 982.081,1374.51 978,1390.5C 971.314,1409.84 957.814,1421.34 937.5,1425C 931.825,1425.59 926.158,1426.26 920.5,1427C 897.836,1427.5 875.169,1427.67 852.5,1427.5C 852.5,1393.83 852.5,1360.17 852.5,1326.5 Z"/></g>
<g><path style="opacity:1" fill="#fefdfd" d="M 2241.5,1326.5 C 2273.84,1326.33 2306.17,1326.5 2338.5,1327C 2370.84,1329.34 2384.68,1346.5 2380,1378.5C 2375.83,1392 2367,1400.83 2353.5,1405C 2347.57,1406.43 2341.57,1407.43 2335.5,1408C 2304.17,1408.5 2272.84,1408.67 2241.5,1408.5C 2241.5,1381.17 2241.5,1353.83 2241.5,1326.5 Z"/></g>
<g><path style="opacity:1" fill="#fefdfd" d="M 2996.5,1326.5 C 3032.17,1326.5 3067.83,1326.5 3103.5,1326.5C 3103.5,1405.17 3103.5,1483.83 3103.5,1562.5C 3058.17,1562.5 3012.83,1562.5 2967.5,1562.5C 2978.17,1530.63 2985.34,1497.97 2989,1464.5C 2994.28,1418.65 2996.78,1372.65 2996.5,1326.5 Z"/></g>
<g><path style="opacity:1" fill="#fefefe" d="M 3982.5,1326.5 C 4012.17,1326.33 4041.84,1326.5 4071.5,1327C 4084.3,1326.24 4096.3,1328.91 4107.5,1335C 4124.01,1350.94 4126.85,1369.1 4116,1389.5C 4108.37,1399.57 4098.2,1405.4 4085.5,1407C 4051.18,1408.35 4016.85,1408.85 3982.5,1408.5C 3982.5,1381.17 3982.5,1353.83 3982.5,1326.5 Z"/></g>
<g><path style="opacity:1" fill="#d08485" d="M 1712.5,1391.5 C 1712.56,1390.96 1712.89,1390.62 1713.5,1390.5C 1714.5,1468.16 1714.83,1545.83 1714.5,1623.5C 1713.83,1546.17 1713.17,1468.83 1712.5,1391.5 Z"/></g>
<g><path style="opacity:1" fill="#fefefe" d="M 2241.5,1469.5 C 2271.84,1469.33 2302.17,1469.5 2332.5,1470C 2347.19,1470.08 2361.19,1473.08 2374.5,1479C 2392.04,1491.95 2398.21,1509.12 2393,1530.5C 2384.84,1551.52 2369.34,1562.02 2346.5,1562C 2311.5,1562.5 2276.5,1562.67 2241.5,1562.5C 2241.5,1531.5 2241.5,1500.5 2241.5,1469.5 Z"/></g>
<g><path style="opacity:1" fill="#fefefe" d="M 3982.5,1469.5 C 4013.17,1469.33 4043.84,1469.5 4074.5,1470C 4083.24,1470.35 4091.91,1471.35 4100.5,1473C 4128.52,1482.18 4139.68,1501.35 4134,1530.5C 4128.57,1546.27 4117.73,1556.1 4101.5,1560C 4095.22,1561.09 4088.88,1561.76 4082.5,1562C 4049.17,1562.5 4015.83,1562.67 3982.5,1562.5C 3982.5,1531.5 3982.5,1500.5 3982.5,1469.5 Z"/></g>
</svg>
